<?xml version="1.0" encoding="UTF-8" standalone="no"?><!DOCTYPE svg PUBLIC "-//W3C//DTD SVG 1.1//EN" "http://www.w3.org/Graphics/SVG/1.1/DTD/svg11.dtd"><svg width="100%" height="100%" viewBox="0 0 642 461" version="1.1" xmlns="http://www.w3.org/2000/svg" xmlns:xlink="http://www.w3.org/1999/xlink" xml:space="preserve" xmlns:serif="http://www.serif.com/" style="fill-rule:evenodd;clip-rule:evenodd;stroke-linejoin:round;stroke-miterlimit:1.41421;"><path d="M49.134,180.531c-3.937,1.272 -13.259,5.71 -19.021,20.05c0,0 2.59,-10.562 13.275,-19.019c1.475,-1.171 5.1,-3.656 5.437,-6.612c0.363,-3.266 0.341,-8.947 0.147,-22.591c0.928,12.178 1.653,22.013 1.884,25.76c0.072,1.256 -0.575,2.037 -1.722,2.412Zm-35.24,247.675c0.669,-7.372 1.506,-9.675 1.506,-9.675c0,0 -1.081,12.15 0.316,18.538c1.025,5.497 3.197,11.362 10.356,20.369c-10.362,-8.416 -12.969,-20.507 -12.178,-29.232Zm38.603,-249.05c-0.791,-13.265 -7.047,-103.668 -7.047,-103.668l-0.431,-0.138l-0.406,0.138l-4.285,83.709c0,0 -0.05,1.325 -1.344,1.325c-1.29,0 -1.309,-1.316 -1.309,-1.316l-4.737,-83.678l-0.447,-0.181l-0.447,0.181l-4.563,83.65c0,0 -0.031,1.344 -1.218,1.344c-1.185,0 -1.241,-1.341 -1.241,-1.341l-4.556,-83.65l-0.447,-0.156l-0.447,0.153l-4.744,83.681c0,0 -0.05,1.313 -1.309,1.313c-1.253,0 -1.344,-1.325 -1.344,-1.325l-4.284,-83.709l-0.419,-0.138l-0.416,0.138c0,0 -6.253,90.403 -7.05,103.668c-0.078,1.253 0.572,2.038 1.722,2.413c3.935,1.272 13.257,6.268 19.019,20.603c6.359,14.784 -6.353,189.5 -9.772,227.34c-0.856,9.404 2.797,22.719 15.288,31.122c12.493,-8.403 16.134,-21.718 15.284,-31.122c-3.428,-37.84 -16.144,-212.556 -9.788,-227.34c5.76,-14.335 15.088,-19.331 19.016,-20.603c1.153,-0.375 1.8,-1.16 1.722,-2.413Z" style="fill:#111517;fill-rule:nonzero;"/><path d="M531.941,79.462c1.262,-0.165 2.55,-0.253 3.847,-0.253c23.643,0 42.812,28.569 42.818,63.81c-0.006,14.828 -3.403,28.475 -9.096,39.309c4.062,-10.175 6.399,-24.528 6.399,-37.228c0,-36.753 -18.128,-65.638 -43.968,-65.638Zm26.275,125.088c-2.882,0.934 -8.581,3.519 -13.753,10.269c5.475,-8.478 12.003,-11.732 15.5,-12.928l0.015,0.187c0.078,1.281 -0.587,2.091 -1.762,2.472Zm-11.794,232.019c1.403,-6.391 0.316,-18.535 0.316,-18.535c0,0 0.837,2.3 1.509,9.666c0.781,8.725 -1.822,20.822 -12.175,29.231c7.153,-9 9.322,-14.865 10.35,-20.362Zm-34.113,-233.178c-1.081,-0.35 -1.696,-1.079 -1.628,-2.244c0.047,-0.672 0.104,-1.56 0.175,-2.628c-11.368,-11.522 -18.815,-30.778 -18.815,-52.585c1.9,25.488 9.709,37.516 20.922,49.25c-0.078,1.072 -0.147,1.957 -0.2,2.632c-0.091,1.171 0.509,1.909 1.6,2.275c10.65,7.981 14.497,14.387 15.912,21.94c-5.444,-13.328 -14.247,-17.459 -17.966,-18.64Zm49.441,-2.572c12.134,-12.369 20.091,-33.157 20.091,-56.71c0,-37.928 -20.632,-68.678 -46.081,-68.678c-25.454,0 -46.091,30.75 -46.091,68.678c0,23.447 7.894,44.153 19.931,56.544c-0.078,1.153 -0.137,2.103 -0.181,2.831c-0.072,1.253 0.569,2.038 1.722,2.41c3.928,1.272 13.265,5.712 19.022,20.047c6.359,14.784 -6.357,165.734 -9.782,203.571c-0.856,9.404 2.797,22.722 15.291,31.122c12.497,-8.4 16.131,-21.718 15.284,-31.122c-3.421,-37.837 -16.134,-188.787 -9.778,-203.571c5.76,-14.335 15.082,-18.775 19.016,-20.047c1.147,-0.372 1.8,-1.157 1.728,-2.41c-0.05,-0.69 -0.103,-1.584 -0.172,-2.665Z" style="fill:#111517;fill-rule:nonzero;"/><path d="M174.469,25.347c-0.084,-0.641 -0.125,-1.291 -0.125,-1.95c0,-12.013 14.516,-21.753 32.422,-21.753c7.534,0 14.465,1.722 19.969,4.615c-5.172,-2.062 -12.463,-3.247 -18.919,-3.247c-18.669,0 -33.347,9.207 -33.347,22.335Zm63.556,-13.344c0.478,1.462 1.788,4.359 5.222,6.988c-4.306,-2.782 -5.959,-6.1 -6.575,-7.879l0.103,-0.006c0.65,-0.04 1.056,0.3 1.25,0.897Zm117.897,5.991c-3.247,-0.716 -9.428,-0.16 -9.428,-0.16c0,0 1.175,-0.428 4.919,-0.768c4.431,-0.397 10.575,0.924 14.856,6.19c-4.581,-3.637 -7.556,-4.743 -10.347,-5.262Zm-118.484,17.328c-0.175,0.556 -0.544,0.866 -1.141,0.831c-0.344,-0.022 -0.787,-0.053 -1.334,-0.084c-5.854,5.772 -15.635,9.556 -26.719,9.556c12.95,-0.963 19.059,-4.934 25.028,-10.634c0.541,0.043 0.991,0.081 1.337,0.106c0.588,0.044 0.969,-0.259 1.154,-0.813c4.056,-5.415 7.309,-7.368 11.153,-8.087c-6.778,2.766 -8.875,7.244 -9.478,9.125Zm-1.303,-25.116c-6.285,-6.162 -16.847,-10.206 -28.819,-10.206c-19.269,0 -34.894,10.481 -34.894,23.413c0,12.931 15.625,23.415 34.894,23.415c11.912,0 22.437,-4.009 28.728,-10.122c0.59,0.034 1.069,0.069 1.437,0.088c0.641,0.04 1.038,-0.291 1.232,-0.878c0.643,-1.991 2.9,-6.735 10.184,-9.663c7.516,-3.228 84.212,3.231 103.434,4.975c4.775,0.428 11.544,-1.422 15.816,-7.772l0,-0.003c-4.272,-6.347 -11.041,-8.197 -15.816,-7.762c-19.222,1.737 -95.918,8.199 -103.434,4.968c-7.284,-2.925 -9.541,-7.665 -10.184,-9.659c-0.194,-0.584 -0.591,-0.922 -1.232,-0.881c-0.343,0.025 -0.803,0.05 -1.346,0.087Z" style="fill:#111517;fill-rule:nonzero;"/><path d="M626.219,456.928c7.153,-9.003 9.322,-14.866 10.34,-20.362c1.41,-6.394 0.326,-18.538 0.326,-18.538c0,0 0.834,2.303 1.509,9.672c0.781,8.725 -1.822,20.822 -12.175,29.228Zm-7.585,-196.897c-2.431,0 -3.071,-2.568 -3.071,-3.559c0,0 1.34,1.266 3.29,1.266l13.016,0.006c1.634,0 1.565,2.287 -0.05,2.287l-13.185,0Zm-5.3,-162.6c0,0 0.213,-2.078 2.56,-6.69c5.815,-11.428 11.634,-15.369 15.716,-13.544c-4.282,-0.222 -7.863,3.225 -10.966,7.428c-4.253,5.756 -7.31,12.806 -7.31,12.806Zm27.766,332.081c-1.753,-19.387 -6.097,-98.631 -7.022,-172.553c5.575,-75.14 0.735,-157.7 1.606,-170.972c0.929,-14.259 -10.606,-16.371 -20.537,1.507c-16.378,29.484 -22.416,120.569 -1.587,167.162c0.321,1.103 0.546,1.55 0.784,2.603c4.828,22.079 -0.55,136.135 -3.816,172.253c-0.85,9.4 2.794,22.719 15.291,31.122l0.006,0c12.491,-8.403 16.131,-21.718 15.275,-31.122Z" style="fill:#111517;fill-rule:nonzero;"/><path d="M463.228,261.031c0,106.566 -86.387,192.95 -192.95,192.95c-106.556,0 -192.94,-86.384 -192.94,-192.95c0,-106.556 86.384,-192.94 192.94,-192.94c106.563,0 192.95,86.384 192.95,192.94Z" style="fill:#111517;fill-rule:nonzero;"/><path d="M270.278,107.537c-84.64,0 -153.497,68.857 -153.497,153.494c0,84.644 68.857,153.503 153.497,153.503c84.644,0 153.5,-68.859 153.5,-153.503c0,-84.637 -68.856,-153.494 -153.5,-153.494Zm0,311.638c-87.194,0 -158.134,-70.938 -158.134,-158.144c0,-87.194 70.94,-158.137 158.134,-158.137c87.2,0 158.144,70.943 158.144,158.137c0,87.206 -70.944,158.144 -158.144,158.144Z" style="fill:#fff;fill-rule:nonzero;"/><path d="M192.575,207.008c22.949,13.25 45.906,26.502 68.856,39.754c2.452,1.412 5.56,2.222 8.759,2.435c4.319,0.276 8.801,-0.534 12.08,-2.435c22.718,-13.205 45.439,-26.402 68.157,-39.607c6.729,-3.916 13.459,-7.82 20.186,-11.733c2.236,-1.297 3.588,-2.92 4.061,-4.614c0.742,-2.627 -0.635,-5.437 -4.128,-7.458c-6.689,-3.857 -13.376,-7.721 -20.062,-11.578c-22.953,-13.25 -45.906,-26.505 -68.857,-39.754c-3.136,-1.804 -7.334,-2.628 -11.434,-2.468c-3.432,0.134 -6.802,0.96 -9.398,2.468c-22.725,13.202 -45.443,26.403 -68.159,39.611c-6.729,3.909 -13.461,7.822 -20.193,11.728c-3.411,1.982 -4.767,4.728 -4.083,7.327c0.465,1.738 1.851,3.408 4.15,4.744c6.683,3.859 13.374,7.72 20.065,11.58" style="fill:#d96747;fill-rule:nonzero;"/><path d="M283.937,382.776c0.021,6.603 4.742,9.29 10.486,5.97c10.296,-5.945 20.593,-11.887 30.888,-17.827c14.332,-8.28 28.663,-16.551 42.994,-24.823c10.629,-6.14 25.497,-12.101 25.457,-26.728c-0.033,-9.59 -0.064,-19.178 -0.086,-28.764c-0.07,-24.468 -0.137,-48.941 -0.204,-73.41c-0.023,-6.595 -4.738,-9.299 -10.493,-5.976c-11.33,6.541 -22.669,13.083 -33.999,19.628c-18.306,10.57 -36.611,21.136 -54.917,31.706c-5.74,3.321 -10.432,11.449 -10.417,18.043c0.041,13.508 0.078,27.014 0.119,40.523c0.057,20.554 0.118,41.102 0.172,61.658" style="fill:#fbd740;fill-rule:nonzero;"/><path d="M176.375,346.082c15.397,8.892 30.797,17.78 46.195,26.674c9.245,5.337 18.489,10.671 27.729,16.011c5.742,3.307 10.469,0.619 10.481,-5.974c0.073,-23.455 0.136,-46.909 0.206,-70.36c0.028,-10.605 0.058,-21.218 0.086,-31.818c0.044,-14.616 -14.807,-20.587 -25.436,-26.72c-14.632,-8.454 -29.267,-16.896 -43.897,-25.336c-9.997,-5.776 -20.003,-11.556 -30.005,-17.327c-5.789,-3.343 -10.509,-0.647 -10.528,5.945c-0.074,24.908 -0.139,49.822 -0.211,74.724c-0.026,9.153 -0.053,18.301 -0.077,27.453c-0.041,14.616 14.826,20.593 25.457,26.728" style="fill:#52a3d0;fill-rule:nonzero;"/></svg>