<?xml version="1.0" ?><svg viewBox="0 0 64 64" xmlns="http://www.w3.org/2000/svg"><defs><style>.cls-1{fill:none;stroke:#000;stroke-linejoin:round;stroke-width:2px;}</style></defs><title/><g data-name="Layer 21" id="Layer_21"><path class="cls-1" d="M44.1,28a4.81,4.81,0,0,1-.1-1,5,5,0,0,1,10,0,4.53,4.53,0,0,1-.1,1"/><path class="cls-1" d="M2,36H62a0,0,0,0,1,0,0v0A26,26,0,0,1,36,62H28A26,26,0,0,1,2,36v0A0,0,0,0,1,2,36Z"/><path class="cls-1" d="M40,36a4.94,4.94,0,0,1-1-3,5,5,0,0,1,10,0,4.94,4.94,0,0,1-1,3"/><path class="cls-1" d="M50,36a4.94,4.94,0,0,1-1-3,5,5,0,1,1,9,3"/><path class="cls-1" d="M54,25.65a6.43,6.43,0,0,1,1-1.27h0a6.84,6.84,0,0,1,4.83-2H61v1.17a6.84,6.84,0,0,1-2,4.83h0a7,7,0,0,1-1.45,1.1"/><path class="cls-1" d="M21,31,4,14v9.51A20.54,20.54,0,0,0,8.24,36"/><path class="cls-1" d="M8,18v4.93A17.07,17.07,0,0,0,13,35h0c.35.35.71.68,1.09,1"/><path class="cls-1" d="M36,36a4.94,4.94,0,0,0,3.42-1.36"/><path class="cls-1" d="M40.58,29a5,5,0,0,0-2.82-2.67A4.18,4.18,0,0,0,38,25a4,4,0,0,0-3.17-3.91A3.94,3.94,0,0,0,35,20a4,4,0,0,0-8,0,3.94,3.94,0,0,0,.17,1.09A4,4,0,0,0,24,25a4.18,4.18,0,0,0,.24,1.33A5,5,0,0,0,26,36H36"/><path class="cls-1" d="M56.58,23a5,5,0,0,0-2.82-2.67A4.18,4.18,0,0,0,54,19a4,4,0,0,0-3.17-3.91A3.94,3.94,0,0,0,51,14a4,4,0,0,0-8,0,3.94,3.94,0,0,0,.17,1.09A4,4,0,0,0,40,19a4.18,4.18,0,0,0,.24,1.33A5,5,0,0,0,37.42,23"/><line class="cls-1" x1="31" x2="31" y1="36" y2="23"/><line class="cls-1" x1="31" x2="34" y1="28" y2="25"/><line class="cls-1" x1="31" x2="28" y1="32" y2="29"/><line class="cls-1" x1="2" x2="62" y1="40" y2="40"/><path class="cls-1" d="M13,15h0a6.84,6.84,0,0,1-2-4.83V9h1.17A6.84,6.84,0,0,1,17,11h0a6.84,6.84,0,0,1,2,4.83V17H17.83A6.84,6.84,0,0,1,13,15Z"/><path class="cls-1" d="M32,8h0a6.84,6.84,0,0,0,2-4.83V2H32.83A6.84,6.84,0,0,0,28,4h0a6.84,6.84,0,0,0-2,4.83V10h1.17A6.84,6.84,0,0,0,32,8Z"/><path class="cls-1" d="M32,40v8a2,2,0,0,0,2,2h0a2,2,0,0,0,2-2V46a2,2,0,0,1,2-2h0a2,2,0,0,1,2,2v6a2,2,0,0,0,2,2h0a2,2,0,0,0,2-2V48a2,2,0,0,1,2-2h0a2,2,0,0,1,2,2v1a2,2,0,0,0,2,2h0a2,2,0,0,0,2-2V40"/></g></svg>