<?xml version="1.0" ?><svg id="Layer_1" style="enable-background:new 0 0 24 24;" version="1.1" viewBox="0 0 24 24" xml:space="preserve" xmlns="http://www.w3.org/2000/svg" xmlns:xlink="http://www.w3.org/1999/xlink"><title/><g id="Cake"><g><path d="M2.5,13.5c-0.904-0.062-1.687-0.65-2-1.5c0,6.351,5.149,11.5,11.5,11.5c0-1.29,0.36-2.58,1.5-3    c-0.148-0.729-0.125-1.482,0.07-2.2c-0.513,0.131-1.04,0.198-1.57,0.2c-3.59,0-6.5-2.91-6.5-6.5C3.29,12,4,13.5,2.5,13.5z" style="fill:#A66936;"/><path d="M21.17,5.08c-1.18,1.1-2.35,0.4-3.2,0.4c-0.868,0.154-1.512,0.89-1.55,1.77    c2.312,2.153,2.735,5.659,1,8.3c0.73,0.09,1.54,0,2.06,0.46c0.54-0.57,1.15-0.5,2-0.5c0.463,0.006,0.918,0.119,1.33,0.33    C24.121,12.207,23.504,8.157,21.17,5.08z" style="fill:#A66936;"/><path d="M18,5.48c0.85,0,2,0.71,3.2-0.4C17.406-0.007,10.207-1.054,5.12,2.74    C2.198,4.919,0.484,8.355,0.5,12c0.313,0.85,1.096,1.438,2,1.5c1.46,0,0.79-1.5,3-1.5c-0.009-3.584,2.889-6.497,6.474-6.506    c1.655-0.004,3.249,0.624,4.456,1.756C16.47,6.363,17.124,5.625,18,5.48z" style="fill:#FBBE9D;"/><g><path d="M14.25,2.75c2.499-0.001,4.93,0.818,6.92,2.33     C17.354,0.01,10.15-1.006,5.08,2.81S-1.006,13.83,2.81,18.9c0.647,0.859,1.411,1.623,2.27,2.27     C1.247,16.119,2.234,8.918,7.285,5.085C9.288,3.565,11.735,2.744,14.25,2.75z" style="opacity:0.2;fill:#FFFFFF;enable-background:new    ;"/><path d="M12.82,18.44L12.82,18.44c-0.534,0.073-1.076,0.073-1.61,0     h-0.19c-0.229-0.034-0.456-0.081-0.68-0.14h-0.1c-0.54-0.155-1.058-0.381-1.54-0.67l0,0c0.98,1.641,2.634,2.768,4.52,3.08     c0.099-0.059,0.202-0.109,0.31-0.15c-0.149-0.729-0.125-1.482,0.07-2.2C13.342,18.402,13.081,18.429,12.82,18.44z" style="opacity:0.2;fill:#FFFFFF;enable-background:new    ;"/><path d="M17.58,8.67L17.58,8.67c0.142,0.238,0.269,0.485,0.38,0.74     l0,0c0.101,0.238,0.188,0.482,0.26,0.73l0.05,0.19c0.053,0.2,0.097,0.403,0.13,0.61c0,0.07,0,0.14,0,0.22     c0.08,0.557,0.08,1.123,0,1.68v0.2c-0.043,0.267-0.104,0.531-0.18,0.79l0,0c-0.085,0.28-0.188,0.554-0.31,0.82v0.1     c-0.124,0.256-0.264,0.503-0.42,0.74c0.73,0.09,1.54,0,2.06,0.46c0.295-0.309,0.703-0.486,1.13-0.49     c0.547-2.685-0.654-5.424-3-6.84L17.58,8.67z" style="opacity:0.2;fill:#FFFFFF;enable-background:new    ;"/></g><g><path d="M16,23h-0.5c-0.276,0-0.5,0.224-0.5,0.5s0.224,0.5,0.5,0.5H16c0.276,0,0.5-0.224,0.5-0.5     S16.276,23,16,23z" style="fill:#303C42;"/><path d="M19.15,21.65l-0.5,0.5c-0.196,0.196-0.196,0.514,0,0.71s0.514,0.196,0.71,0l0.5-0.5     c0.196-0.196,0.196-0.514,0-0.71S19.346,21.454,19.15,21.65z" style="fill:#303C42;"/><path d="M23.5,23H23c-0.276,0-0.5,0.224-0.5,0.5S22.724,24,23,24h0.5c0.276,0,0.5-0.224,0.5-0.5     S23.776,23,23.5,23z" style="fill:#303C42;"/><path d="M2.65,9.65l-0.5,0.5c-0.196,0.196-0.196,0.514,0,0.71s0.514,0.196,0.71,0l0.5-0.5     c0.196-0.196,0.196-0.514,0-0.71S2.846,9.454,2.65,9.65z" style="fill:#303C42;"/><path d="M4.5,6C4.224,6,4,6.224,4,6.5V7c0,0.276,0.224,0.5,0.5,0.5S5,7.276,5,7V6.5C5,6.224,4.776,6,4.5,6     z" style="fill:#303C42;"/><path d="M7.85,3.65c-0.196-0.196-0.514-0.196-0.71,0s-0.196,0.514,0,0.71l0.5,0.5     c0.196,0.196,0.514,0.196,0.71,0c0.196-0.196,0.196-0.514,0-0.71L7.85,3.65z" style="fill:#303C42;"/><path d="M11.15,2.15l-0.5,0.5c-0.196,0.196-0.196,0.514,0,0.71s0.514,0.196,0.71,0l0.5-0.5     c0.196-0.196,0.196-0.514,0-0.71S11.346,1.954,11.15,2.15z" style="fill:#303C42;"/><path d="M15.35,3.15l-0.5-0.5c-0.196-0.196-0.514-0.196-0.71,0s-0.196,0.514,0,0.71l0,0l0.5,0.5     c0.196,0.196,0.514,0.196,0.71,0S15.546,3.346,15.35,3.15z" style="fill:#303C42;"/><path d="M23,16.29c0.132-0.055,0.234-0.165,0.28-0.3c1.346-3.746,0.726-7.917-1.65-11.11     c-0.025-0.064-0.062-0.121-0.11-0.17l0,0C17.485-0.548,9.952-1.539,4.695,2.495C1.739,4.763,0.005,8.275,0,12l0,0l0,0     c0,6.627,5.373,12,12,12c0.276,0,0.5-0.224,0.5-0.5c0-1,0.2-2.17,1.17-2.53c0.258-0.098,0.388-0.387,0.29-0.645     c-0.009-0.022-0.019-0.044-0.03-0.065c-0.106-0.621-0.062-1.259,0.13-1.86c0.052-0.271-0.125-0.533-0.397-0.585     c-0.071-0.014-0.143-0.012-0.213,0.005C12.976,17.939,12.489,18,12,18c-3.314,0.017-6.014-2.656-6.031-5.969     S8.625,6.017,11.939,6s6.014,2.656,6.031,5.969c0.006,1.171-0.331,2.319-0.969,3.301c-0.152,0.231-0.088,0.541,0.143,0.692     c0.062,0.041,0.133,0.067,0.207,0.078c0.2,0,0.41,0,0.61,0c0.41-0.035,0.82,0.063,1.17,0.28c0.194,0.191,0.506,0.191,0.7,0     c0.33-0.34,0.66-0.35,1.39-0.35h0.25c0.386,0.002,0.766,0.094,1.11,0.27C22.706,16.318,22.859,16.336,23,16.29z M13,18.93     c-0.058,0.431-0.058,0.869,0,1.3c-0.926,0.617-1.482,1.657-1.48,2.77c-5.286-0.236-9.655-4.202-10.4-9.44     C1.522,13.848,2.005,14.002,2.5,14c0.612,0.01,1.183-0.306,1.5-0.83c0.214-0.357,0.585-0.591,1-0.63     c0.296,3.855,3.66,6.74,7.515,6.444C12.677,18.972,12.839,18.954,13,18.93z M5,11.53c-0.722,0.03-1.386,0.401-1.79,1     C3,12.87,2.9,13,2.5,13c-0.669-0.042-1.253-0.467-1.5-1.09C1.06,5.835,6.032,0.959,12.107,1.018     C15.345,1.05,18.404,2.507,20.47,5c-0.512,0.27-1.114,0.314-1.66,0.12C18.545,5.053,18.273,5.013,18,5     c-0.508,0.028-0.983,0.259-1.32,0.64c-0.214,0.221-0.387,0.478-0.51,0.76c-3.098-2.312-7.484-1.675-9.797,1.424     C5.569,8.901,5.092,10.188,5,11.53z M21.5,15h-0.24c-0.624-0.075-1.256,0.055-1.8,0.37c-0.374-0.171-0.779-0.262-1.19-0.27     c1.319-2.666,0.81-5.874-1.27-8c0.048-0.295,0.188-0.568,0.4-0.78C17.556,6.147,17.769,6.033,18,6     c0.206,0.012,0.41,0.042,0.61,0.09c0.825,0.259,1.722,0.15,2.46-0.3c1.894,2.739,2.432,6.194,1.46,9.38     C22.198,15.06,21.85,15.003,21.5,15z" style="fill:#303C42;"/></g><linearGradient gradientTransform="matrix(1 0 0 -1 0 24)" gradientUnits="userSpaceOnUse" id="SVGID_1_" x1="1.1277" x2="26.3008" y1="17.0632" y2="5.3217"><stop offset="0" style="stop-color:#FFFFFF;stop-opacity:0.2"/><stop offset="1" style="stop-color:#FFFFFF;stop-opacity:0"/></linearGradient><path d="M19.15,21.65l-0.5,0.5c-0.196,0.196-0.196,0.514,0,0.71s0.514,0.196,0.71,0l0.5-0.5    c0.196-0.196,0.196-0.514,0-0.71S19.346,21.454,19.15,21.65z M16,23h-0.5c-0.276,0-0.5,0.224-0.5,0.5s0.224,0.5,0.5,0.5H16    c0.276,0,0.5-0.224,0.5-0.5S16.276,23,16,23z M23,16.29c0.132-0.055,0.234-0.165,0.28-0.3c1.346-3.746,0.726-7.917-1.65-11.11    c-0.025-0.064-0.062-0.121-0.11-0.17l0,0C17.485-0.548,9.952-1.539,4.695,2.495C1.739,4.763,0.005,8.275,0,12l0,0l0,0    c0,6.627,5.373,12,12,12c0.276,0,0.5-0.224,0.5-0.5c0-1,0.2-2.17,1.17-2.53c0.258-0.098,0.388-0.387,0.29-0.645    c-0.009-0.022-0.019-0.044-0.03-0.065c-0.106-0.621-0.062-1.259,0.13-1.86c0.052-0.271-0.125-0.533-0.397-0.585    c-0.071-0.014-0.143-0.012-0.213,0.005C12.976,17.939,12.489,18,12,18c-3.314,0.017-6.014-2.656-6.031-5.969S8.625,6.017,11.939,6    s6.014,2.656,6.031,5.969c0.006,1.171-0.331,2.319-0.969,3.301c-0.152,0.231-0.088,0.541,0.143,0.692    c0.062,0.041,0.133,0.067,0.207,0.078c0.2,0,0.41,0,0.61,0c0.41-0.035,0.82,0.063,1.17,0.28c0.194,0.191,0.506,0.191,0.7,0    c0.33-0.34,0.66-0.35,1.39-0.35h0.25c0.386,0.002,0.766,0.094,1.11,0.27C22.706,16.318,22.859,16.336,23,16.29z M23.5,23H23    c-0.276,0-0.5,0.224-0.5,0.5S22.724,24,23,24h0.5c0.276,0,0.5-0.224,0.5-0.5S23.776,23,23.5,23z" style="fill:url(#SVGID_1_);"/></g></g></svg>