<?xml version="1.0" ?><svg style="enable-background:new 0 0 50 50;" version="1.1" viewBox="0 0 50 50" xml:space="preserve" xmlns="http://www.w3.org/2000/svg" xmlns:xlink="http://www.w3.org/1999/xlink"><g id="Layer_1"><path d="M44,49V1H8v5H6v2h2v4H6v2h2v4H6v2h2v4H6v2h2v4H6v2h2v4H6v2h2v4H6v2h2v5H44z M10,38h2v-2h-2v-4h2v-2h-2v-4h2v-2h-2v-4h2v-2   h-2v-4h2v-2h-2V8h2V6h-2V3h32v44H10v-3h2v-2h-2V38z"/><path d="M37,8H17v14h20V8z M35,20H19V10h16V20z"/><rect height="2" width="14" x="20" y="26"/><rect height="2" width="14" x="20" y="31"/></g><g/></svg>