<?xml version="1.0" encoding="UTF-8" standalone="no"?><!DOCTYPE svg PUBLIC "-//W3C//DTD SVG 1.1//EN" "http://www.w3.org/Graphics/SVG/1.1/DTD/svg11.dtd"><svg width="100%" height="100%" viewBox="0 0 183 196" version="1.1" xmlns="http://www.w3.org/2000/svg" xmlns:xlink="http://www.w3.org/1999/xlink" xml:space="preserve" xmlns:serif="http://www.serif.com/" style="fill-rule:evenodd;clip-rule:evenodd;stroke-linejoin:round;stroke-miterlimit:1.41421;"><path d="M31.243,58.108c17.212,9.938 34.429,19.877 51.642,29.816c1.839,1.059 4.17,1.666 6.569,1.826c3.239,0.207 6.601,-0.401 9.06,-1.826c17.039,-9.904 34.079,-19.802 51.118,-29.706c5.047,-2.937 10.094,-5.865 15.139,-8.799c1.677,-0.973 2.691,-2.19 3.046,-3.461c0.557,-1.97 -0.476,-4.078 -3.096,-5.593c-5.017,-2.893 -10.032,-5.791 -15.046,-8.684c-17.215,-9.937 -34.43,-19.879 -51.643,-29.815c-2.352,-1.353 -5.501,-1.971 -8.576,-1.851c-2.574,0.1 -5.101,0.72 -7.048,1.851c-17.044,9.901 -34.082,19.802 -51.119,29.708c-5.047,2.932 -10.096,5.866 -15.145,8.796c-2.558,1.486 -3.575,3.546 -3.062,5.495c0.348,1.304 1.388,2.556 3.112,3.558c5.012,2.894 10.031,5.79 15.049,8.685" style="fill:#d96747;fill-rule:nonzero;"/><path d="M99.764,189.934c0.016,4.952 3.557,6.968 7.865,4.478c7.722,-4.459 15.445,-8.916 23.166,-13.371c10.749,-6.21 21.497,-12.413 32.245,-18.617c7.972,-4.605 19.123,-9.076 19.093,-20.046c-0.025,-7.192 -0.048,-14.383 -0.064,-21.573c-0.053,-18.351 -0.103,-36.706 -0.153,-55.057c-0.018,-4.947 -3.554,-6.975 -7.87,-4.482c-8.498,4.905 -17.002,9.812 -25.499,14.721c-13.73,7.927 -27.459,15.852 -41.188,23.779c-4.305,2.491 -7.824,8.587 -7.813,13.532c0.031,10.131 0.059,20.261 0.089,30.393c0.043,15.415 0.089,30.826 0.129,46.243" style="fill:#fbd740;fill-rule:nonzero;"/><path d="M19.093,162.414c11.548,6.669 23.098,13.335 34.646,20.005c6.934,4.003 13.867,8.003 20.797,12.008c4.306,2.481 7.852,0.465 7.861,-4.48c0.054,-17.591 0.102,-35.182 0.154,-52.77c0.021,-7.954 0.044,-15.914 0.065,-23.864c0.033,-10.962 -11.106,-15.44 -19.077,-20.04c-10.974,-6.34 -21.951,-12.672 -32.923,-19.002c-7.498,-4.332 -15.002,-8.667 -22.504,-12.995c-4.342,-2.507 -7.882,-0.485 -7.896,4.459c-0.055,18.681 -0.104,37.366 -0.158,56.043c-0.02,6.865 -0.04,13.726 -0.058,20.59c-0.031,10.962 11.12,15.444 19.093,20.046" style="fill:#52a3d0;fill-rule:nonzero;"/></svg>