<?xml version="1.0" encoding="UTF-8" standalone="no"?><!DOCTYPE svg PUBLIC "-//W3C//DTD SVG 1.1//EN" "http://www.w3.org/Graphics/SVG/1.1/DTD/svg11.dtd"><svg width="100%" height="100%" viewBox="0 0 512 512" version="1.1" xmlns="http://www.w3.org/2000/svg" xmlns:xlink="http://www.w3.org/1999/xlink" xml:space="preserve" xmlns:serif="http://www.serif.com/" style="fill-rule:evenodd;clip-rule:evenodd;stroke-linejoin:round;stroke-miterlimit:1.41421;"><g><path d="M198.441,10.917c-109.984,29.551 -184.554,133.585 -178.454,248.752c2.558,46.958 14.953,85.212 39.941,124.073c43.285,66.793 119.428,108.69 197.539,108.69c78.111,0 154.254,-41.897 197.54,-108.893c18.298,-28.336 28.725,-53.636 35.809,-87.842c4.918,-23.479 4.918,-73.067 0,-96.748c-4.329,-20.645 -13.576,-47.767 -18.102,-53.03c-5.115,-5.667 -13.576,-4.655 -21.839,3.239c-11.412,10.322 -19.872,14.168 -32.071,14.168c-12.395,0 -23.02,-4.453 -31.874,-13.764c-7.083,-7.084 -13.182,-20.037 -13.379,-27.526c0,-9.716 -5.115,-14.168 -16.134,-14.168c-22.233,0 -37.776,-10.525 -47.22,-31.778c-6.296,-14.37 -10.428,-16.799 -22.43,-12.751c-24.397,8.299 -53.517,-11.537 -57.058,-39.064c-1.574,-11.132 -6.296,-17.609 -12.986,-17.406c-2.558,0 -11.215,1.821 -19.282,4.048Zm9.248,29.551c6.099,19.228 20.659,36.027 37.776,44.528c7.87,3.643 15.15,5.465 26.759,6.275c15.936,1.012 16.133,1.012 19.675,7.893c8.067,15.383 30.496,30.968 49.385,34.004c7.476,1.214 8.263,1.821 11.411,11.334c7.674,21.657 33.645,42.302 57.649,45.338c11.805,1.62 29.709,-1.821 40.531,-7.286l7.28,-4.048l2.164,5.667c8.854,23.884 11.412,78.735 5.116,107.273c-7.084,31.373 -19.676,60.519 -36.99,85.009c-9.444,13.561 -40.334,45.136 -43.876,45.136c-1.377,0 -5.312,-4.453 -8.657,-9.715c-8.46,-13.561 -22.233,-26.11 -35.415,-32.385c-10.428,-5.06 -13.183,-5.464 -35.809,-5.262c-17.905,0 -31.874,1.619 -51.746,5.465c-31.284,6.274 -43.679,6.679 -58.436,2.226c-15.74,-4.857 -29.316,-20.038 -44.859,-50.398c-20.659,-40.683 -34.235,-54.851 -57.058,-59.911c-10.625,-2.226 -35.219,-1.417 -42.302,1.417c-4.329,1.619 -6.1,-12.954 -4.722,-36.433c5.902,-90.069 61.19,-165.362 143.629,-195.52c12.986,-4.858 16.921,-4.858 18.495,-0.607Zm-114.51,261.503c10.821,5.06 20.462,16.597 31.48,37.85c22.233,42.909 31.481,54.243 52.14,64.363c12.198,6.073 13.772,6.275 37.383,6.275c17.707,-0.202 30.89,-1.417 47.22,-5.06c31.481,-6.477 54.697,-6.477 67.88,0c10.428,5.262 23.61,17.811 28.529,27.122c2.361,4.857 2.361,5.667 0,7.489c-7.28,4.655 -33.842,14.775 -50.959,19.43c-16.33,4.453 -23.02,5.263 -49.385,5.263c-26.365,0 -33.054,-0.81 -49.385,-5.263c-26.168,-7.084 -46.433,-16.192 -66.896,-29.955c-39.153,-26.515 -69.453,-66.591 -84.406,-111.524c-6.493,-19.835 -6.69,-19.431 14.756,-19.633c9.247,0 16.33,1.012 21.643,3.643Z" style="fill-rule:nonzero;"/><path d="M160.075,91.675c-2.165,2.429 -3.739,7.287 -3.739,11.133c0,9.512 5.509,15.18 14.954,15.18c9.64,0 15.346,-5.668 15.346,-15.18c0,-9.513 -5.706,-15.181 -15.346,-15.181c-5.313,0 -8.854,1.417 -11.215,4.048Z" style="fill-rule:nonzero;"/><path d="M145.515,161.707c-7.28,9.512 -4.722,21.049 5.706,24.895c7.28,2.429 14.166,0.202 18.494,-6.274c4.329,-6.072 3.936,-12.145 -0.983,-18.621c-3.148,-4.048 -5.706,-5.263 -11.609,-5.263c-5.902,0 -8.46,1.215 -11.608,5.263Z" style="fill-rule:nonzero;"/><path d="M241.14,156.871c-17.469,3.068 -33.658,11.615 -47.718,25.202c-55.174,54.347 -25.776,150.551 49.848,163.042c61.564,10.081 115.673,-45.582 105.874,-108.914c-3.409,-21.476 -12.356,-39.226 -27.481,-54.128c-14.485,-14.025 -30.036,-22.134 -49.635,-25.421c-15.124,-2.41 -15.551,-2.41 -30.888,0.219Zm43.244,33.748c40.901,18.628 50.7,74.29 18.746,107.161c-40.688,41.637 -110.134,12.053 -110.134,-46.896c0,-48.869 47.718,-80.426 91.388,-60.265Z" style="fill-rule:nonzero;"/><path d="M82.357,196.925c-4.918,5.06 -5.115,16.192 -0.393,22.264c4.919,6.072 16.724,6.477 22.43,0.405c6.099,-6.072 5.902,-17.812 -0.197,-22.872c-6.099,-5.06 -16.921,-4.857 -21.84,0.203Z" style="fill-rule:nonzero;"/><path d="M418.804,247.525c-5.312,5.465 -5.312,18.216 0,23.276c2.361,2.227 7.083,3.846 10.822,3.846c9.247,0 14.756,-5.667 14.756,-15.383c0,-9.917 -5.509,-15.787 -14.756,-15.787c-4.329,0 -8.461,1.619 -10.822,4.048Z" style="fill-rule:nonzero;"/><path d="M354.269,318.973c-8.263,9.108 -3.935,24.086 7.477,26.717c12.002,2.631 22.233,-10.12 17.511,-21.657c-4.329,-10.727 -17.511,-13.358 -24.988,-5.06Z" style="fill-rule:nonzero;"/><path d="M220.716,222.928c10.44,6.029 20.884,12.058 31.325,18.086c1.116,0.643 2.53,1.011 3.985,1.108c1.965,0.126 4.004,-0.243 5.496,-1.108c10.336,-6.007 20.672,-12.011 31.008,-18.019c3.061,-1.782 6.123,-3.558 9.183,-5.337c1.017,-0.591 1.632,-1.329 1.848,-2.1c0.337,-1.195 -0.289,-2.474 -1.878,-3.393c-3.044,-1.754 -6.086,-3.512 -9.127,-5.267c-10.443,-6.028 -20.885,-12.059 -31.327,-18.086c-1.426,-0.821 -3.336,-1.195 -5.202,-1.123c-1.561,0.061 -3.094,0.437 -4.275,1.123c-10.339,6.006 -20.674,12.012 -31.008,18.021c-3.062,1.778 -6.125,3.558 -9.187,5.335c-1.552,0.902 -2.169,2.151 -1.858,3.334c0.211,0.791 0.842,1.55 1.888,2.158c3.04,1.755 6.085,3.512 9.129,5.268" style="fill:#d96747;fill-rule:nonzero;"/><path d="M262.28,302.893c0.01,3.004 2.158,4.227 4.771,2.716c4.684,-2.704 9.369,-5.408 14.052,-8.11c6.521,-3.767 13.04,-7.53 19.56,-11.293c4.836,-2.794 11.6,-5.506 11.582,-12.16c-0.016,-4.363 -0.03,-8.725 -0.039,-13.086c-0.032,-11.132 -0.063,-22.266 -0.093,-33.397c-0.011,-3.001 -2.156,-4.231 -4.774,-2.719c-5.155,2.975 -10.313,5.952 -15.468,8.93c-8.328,4.808 -16.656,9.615 -24.984,14.424c-2.611,1.511 -4.746,5.209 -4.739,8.208c0.019,6.146 0.036,12.29 0.054,18.436c0.026,9.351 0.054,18.699 0.078,28.051" style="fill:#fbd740;fill-rule:nonzero;"/><path d="M213.346,286.2c7.004,4.045 14.011,8.089 21.016,12.135c4.206,2.428 8.411,4.854 12.615,7.284c2.612,1.504 4.763,0.282 4.768,-2.718c0.033,-10.671 0.062,-21.341 0.094,-32.01c0.012,-4.825 0.026,-9.653 0.039,-14.476c0.02,-6.649 -6.737,-9.366 -11.572,-12.156c-6.657,-3.846 -13.315,-7.687 -19.971,-11.526c-4.548,-2.628 -9.1,-5.258 -13.651,-7.883c-2.633,-1.521 -4.781,-0.294 -4.789,2.705c-0.034,11.332 -0.063,22.666 -0.096,33.995c-0.012,4.164 -0.024,8.326 -0.035,12.49c-0.019,6.649 6.745,9.368 11.582,12.16" style="fill:#52a3d0;fill-rule:nonzero;"/></g></svg>