<svg xmlns="http://www.w3.org/2000/svg" xmlns:xlink="http://www.w3.org/1999/xlink" class="ldi-hkoxq0" width="120px"
     height="120px" viewBox="0 0 100 100" preserveAspectRatio="xMidYMid" style="background: none;">
    <svg xmlns="http://www.w3.org/2000/svg" xmlns:xlink="http://www.w3.org/1999/xlink" version="1.1" id="圖層_1" x="0px"
         y="0px" viewBox="0 0 100 100" style="transform-origin: 50px 50px 0px;" xml:space="preserve"><g style="transform-origin: 50px 50px 0px;"><g style="transform-origin: 50px 50px 0px; transform: scale(0.7);"><g class="ld ld-cycle" style="transform-origin: 50px 50px 0px; animation-duration: 1.5s; animation-delay: -1.5s; animation-direction: normal;"><g><style type="text/css" style="transform-origin: 50px 50px 0px;">.st0,.st1{stroke-width:3.5;stroke-linejoin:round;stroke-miterlimit:10}.st0{fill:#abbd80;stroke:#333}.st1{opacity:.2;stroke:#000}.st2,.st3{stroke:#333}.st2{stroke-width:3.5;stroke-linecap:round;stroke-linejoin:round;stroke-miterlimit:10;fill:none}.st3{fill:#f3e5c7}.st3,.st4,.st5{stroke-width:3.5;stroke-linejoin:round;stroke-miterlimit:10}.st4{fill:#67503b;stroke:#333}.st5{stroke:#fff;stroke-linecap:round}.st6{fill:#333}.st10,.st7,.st8,.st9{fill:#e0e0e0;stroke:#333;stroke-width:3.5;stroke-miterlimit:10}.st10,.st8,.st9{fill:#cccbca}.st10,.st9{fill:#e6e6e5}.st10{fill:#a0c7d6}.st11{fill:#e0e0e0}.st12,.st13,.st14,.st15,.st16{fill:#f3e5c7;stroke:#333;stroke-width:3.5;stroke-miterlimit:10}.st13,.st14,.st15,.st16{fill:#9dc3d1}.st14,.st15,.st16{fill:#77a4bd}.st15,.st16{fill:#b2b3b3}.st16{fill:none;stroke:#fff;stroke-width:4;stroke-linecap:round}.st17{fill:#fff}.st18,.st19,.st20{stroke-width:3.5;stroke-miterlimit:10}.st18{opacity:.2;stroke:#000}.st19,.st20{fill:#dfdfdf;stroke:#333}.st20{fill:#f6b16a}.st21{fill:#f3e5c7}.st22{fill:#f37e5f;stroke:#333;stroke-width:3.5;stroke-miterlimit:10}.st23{fill:#fff;stroke:#333}.st23,.st24,.st25{stroke-width:3.5;stroke-miterlimit:10}.st24{stroke-linecap:round;fill:none;stroke:#fff}.st25{fill:#66503a;stroke:#333}.st26,.st27,.st28,.st29,.st30{fill:none;stroke:#76a3bc;stroke-width:3.7112;stroke-linecap:round;stroke-miterlimit:10}.st27,.st28,.st29,.st30{stroke:#e15c64}.st28,.st29,.st30{stroke:#839a86}.st29,.st30{stroke:#f7b16a}.st30{stroke:#fff;stroke-width:3.5;stroke-linejoin:round}.st31{fill:#fefefe}.st32{fill:#323232}.st33{fill:#c33636;stroke:#333;stroke-width:3.5;stroke-miterlimit:10}.st34{opacity:.2}.st35,.st36,.st37{stroke-width:3.5;stroke-miterlimit:10}.st35{stroke-linecap:round;fill:#c33636;stroke:#fff}.st36,.st37{fill:#abbc80;stroke:#333}.st37{fill:#f7b16a}.st38{fill:#4a3826}.st39{fill:#f7b16a}.st40{fill:#e15b64}.st41{fill:#abbd81}.st42{fill:#ffdc6c}.st43{fill:#e15b64}.st43,.st44,.st45,.st46{stroke:#333;stroke-width:3.5;stroke-miterlimit:10}.st44{stroke-linejoin:round;fill:#abbd81}.st45,.st46{fill:#ffdc6c}.st46{fill:none;stroke-linecap:round}.st47{fill:#9dc3d1}.st48{fill:#769fb6}.st49,.st50,.st51{fill:#e2d5b9;stroke:#333;stroke-width:3.5;stroke-miterlimit:10}.st50,.st51{fill:#e15c64}.st51{fill:#f5e6c8}.st52{fill:#cccbca}.st53{fill:#e6e6e5}.st54{fill:#a0c7d6}.st55{fill:#666}.st56,.st57{fill:none;stroke-width:3.5;stroke-miterlimit:10}.st56{stroke-linecap:round;stroke:#666}.st57{stroke:#333}.st58{opacity:.2;fill:#fff}.st59{fill:#e0e0e0;stroke:#333;stroke-width:3.5;stroke-linejoin:round;stroke-miterlimit:10}.st60{fill:#abbd80}.st61{fill:#839a86}.st62{fill:#67503b}.st63,.st64,.st65{stroke-linecap:round}.st63{fill:#abbd80;stroke:#fff;stroke-width:2;stroke-miterlimit:10}.st64,.st65{stroke-linejoin:round}.st64{stroke:#333;stroke-width:3.5;stroke-miterlimit:10;fill:#abbd80}.st65{fill:#67503b}.st65,.st66,.st67,.st68{stroke:#333;stroke-width:3.5;stroke-miterlimit:10}.st66{stroke-linecap:round;stroke-linejoin:round;fill:#e0e0e0}.st67,.st68{fill:#abbd80}.st68{fill:#67503b}.st69{opacity:.3;fill:#fff}.st70,.st71{fill:none;stroke:#fff;stroke-width:3;stroke-linecap:round;stroke-miterlimit:10}.st71{fill:#f3e5c7;stroke-width:2}.st72{fill:#f8b26a}.st73{fill:#f7b16a;stroke:#333;stroke-width:3.5;stroke-linejoin:round;stroke-miterlimit:10}.st74{fill:#f4e069}.st75{fill:#e15c64}.st76,.st77{fill:#f4e069;stroke:#333;stroke-width:3.5;stroke-linejoin:round;stroke-miterlimit:10}.st77{fill:#e15c64}.st78{fill:#e15c65}.st79{fill:none;stroke:#f4e069;stroke-width:3.8671;stroke-linecap:round;stroke-miterlimit:10}.st80{fill:#e15c65;stroke:#333;stroke-width:3.5}.st80,.st81,.st82{stroke-miterlimit:10}.st81{fill:#e0e0e0;stroke-linecap:round;stroke:#fff;stroke-width:3.1169}.st82{stroke:#333;stroke-width:3.5}.st82,.st83{fill:#8c6339}.st84{fill:#a0c8d7;stroke:#333;stroke-width:3.5;stroke-miterlimit:10}.st85{fill:#76a3bc}.st86{fill:#f5e169}.st87,.st88,.st89{stroke-miterlimit:10}.st87{fill:#e0e0e0;stroke-linecap:round;stroke:#fff;stroke-width:1.7347}.st88,.st89{stroke:#000;stroke-width:3.5;stroke-linejoin:round}.st89{stroke:#333}.st89,.st90{fill:#f37e5f}.st91{fill:#e0c3c4}</style><g
            style="transform-origin: 50px 50px 0px;"><path class="st25" d="M87.1,53.3H12.9c-1.6,0-2.9-1.3-2.9-2.9v-5.1c0-1.6,1.3-2.9,2.9-2.9h74.2c1.6,0,2.9,1.3,2.9,2.9v5.1 C90,52,88.7,53.3,87.1,53.3z" fill="#66503a" stroke="#000000" style="fill: rgb(102, 80, 58); stroke: rgb(0, 0, 0);"/></g><g
            style="transform-origin: 50px 50px 0px;"><path class="st25" d="M87.1,74H12.9C11.3,74,10,72.7,10,71v-5.1c0-1.6,1.3-2.9,2.9-2.9h74.2c1.6,0,2.9,1.3,2.9,2.9V71 C90,72.7,88.7,74,87.1,74z" fill="#66503a" stroke="#000000" style="fill: rgb(102, 80, 58); stroke: rgb(0, 0, 0);"/></g><g
            style="transform-origin: 50px 50px 0px;"><rect x="14.4" y="53.3" class="st36" width="71.2" height="9.7" stroke="#000000" fill="#fff9c6" style="stroke: rgb(0, 0, 0); fill: rgb(255, 249, 198);"/></g><g
            style="transform-origin: 50px 50px 0px;"><path class="st37" d="M64.9,15H35.1c-11.4,0-20.7,9.3-20.7,20.7v6.7h71.2v-6.7C85.6,24.2,76.4,15,64.9,15z" stroke="#000000" fill="#f7b069" style="stroke: rgb(0, 0, 0); fill: rgb(247, 176, 105);"/></g><g
            style="transform-origin: 50px 50px 0px;"><path class="st37" d="M75.2,86H24.8c-5.7,0-10.4-4.7-10.4-10.4V74h71.2v1.6C85.6,81.4,81,86,75.2,86z" stroke="#000000" fill="#f7b069" style="stroke: rgb(0, 0, 0); fill: rgb(247, 176, 105);"/></g><g
            style="transform-origin: 50px 50px 0px;"><path class="st21" d="M39.9,31.7c-0.6-1.5,0.1-3.2,0.8-3.5s2.4,0.4,3.1,1.9s0.3,3-0.8,3.5C41.9,34.1,40.6,33.2,39.9,31.7z" fill="#ffffff" style="fill: rgb(255, 255, 255);"/></g><g
            style="transform-origin: 50px 50px 0px;"><path class="st21" d="M49.8,36.1c-0.6-1.5,0.1-3.2,0.8-3.5c0.6-0.3,2.4,0.4,3.1,1.9s0.3,3-0.8,3.5C51.8,38.4,50.4,37.6,49.8,36.1z" fill="#ffffff" style="fill: rgb(255, 255, 255);"/></g><g
            style="transform-origin: 50px 50px 0px;"><path class="st21" d="M61.4,28.4c-0.8,1.3-2.6,1.7-3.2,1.3c-0.6-0.4-1-2.1-0.2-3.4c0.8-1.3,2.2-1.9,3.2-1.3 C62.1,25.6,62.2,27.1,61.4,28.4z" fill="#ffffff" style="fill: rgb(255, 255, 255);"/></g><g
            style="transform-origin: 50px 50px 0px;"><path class="st21" d="M70.8,22.2c1.4,0.8,1.9,2.7,1.6,3.3c-0.3,0.6-2.2,1.2-3.6,0.4c-1.4-0.8-2.1-2.3-1.6-3.3S69.4,21.4,70.8,22.2z" fill="#ffffff" style="fill: rgb(255, 255, 255);"/></g><g
            style="transform-origin: 50px 50px 0px;"><path class="st21" d="M24.1,34.1c1.3,1.1,1.5,3.1,1,3.7c-0.5,0.6-2.5,0.9-3.8-0.2c-1.3-1.1-1.8-2.7-1-3.7S22.8,33,24.1,34.1z" fill="#ffffff" style="fill: rgb(255, 255, 255);"/></g><g
            style="transform-origin: 50px 50px 0px;"><path class="st21" d="M31.7,25.7c0.4,1.6-0.6,3.3-1.2,3.5c-0.7,0.2-2.4-0.7-2.9-2.3c-0.4-1.6,0.1-3.1,1.2-3.5 C30,23.1,31.3,24.1,31.7,25.7z" fill="#ffffff" style="fill: rgb(255, 255, 255);"/></g><g
            style="transform-origin: 50px 50px 0px;"><path class="st21" d="M43.1,22.1c-0.5,1.5-2.3,2.3-3,2.1c-0.7-0.2-1.6-1.9-1-3.5c0.5-1.5,1.9-2.5,3-2.1S43.7,20.6,43.1,22.1z" fill="#ffffff" style="fill: rgb(255, 255, 255);"/></g><g
            style="transform-origin: 50px 50px 0px;"><path class="st21" d="M76.2,37.1c-1.5-0.3-2.5-1.8-2.4-2.5c0.1-0.6,1.6-1.7,3.1-1.4s2.6,1.4,2.4,2.5S77.7,37.3,76.2,37.1z" fill="#ffffff" style="fill: rgb(255, 255, 255);"/></g><g
            style="transform-origin: 50px 50px 0px;"><line class="st46" x1="18.5" y1="47.9" x2="18.5" y2="52.8" stroke="#000000" style="stroke: rgb(0, 0, 0);"/></g><g
            style="transform-origin: 50px 50px 0px;"><line class="st46" x1="26.4" y1="43.3" x2="26.4" y2="48.3" stroke="#000000" style="stroke: rgb(0, 0, 0);"/></g><g
            style="transform-origin: 50px 50px 0px;"><line class="st46" x1="34.5" y1="47.9" x2="34.5" y2="52.8" stroke="#000000" style="stroke: rgb(0, 0, 0);"/></g><g
            style="transform-origin: 50px 50px 0px;"><line class="st46" x1="42.4" y1="43.3" x2="42.4" y2="48.3" stroke="#000000" style="stroke: rgb(0, 0, 0);"/></g><g
            style="transform-origin: 50px 50px 0px;"><line class="st46" x1="50.5" y1="47.9" x2="50.5" y2="52.8" stroke="#000000" style="stroke: rgb(0, 0, 0);"/></g><g
            style="transform-origin: 50px 50px 0px;"><line class="st46" x1="58.4" y1="43.3" x2="58.4" y2="48.3" stroke="#000000" style="stroke: rgb(0, 0, 0);"/></g><g
            style="transform-origin: 50px 50px 0px;"><line class="st46" x1="30" y1="68.3" x2="30" y2="73.2" stroke="#000000" style="stroke: rgb(0, 0, 0);"/></g><g
            style="transform-origin: 50px 50px 0px;"><line class="st46" x1="38" y1="63.7" x2="38" y2="68.7" stroke="#000000" style="stroke: rgb(0, 0, 0);"/></g><g
            style="transform-origin: 50px 50px 0px;"><line class="st46" x1="46" y1="68.3" x2="46" y2="73.2" stroke="#000000" style="stroke: rgb(0, 0, 0);"/></g><g
            style="transform-origin: 50px 50px 0px;"><line class="st46" x1="54" y1="63.7" x2="54" y2="68.7" stroke="#000000" style="stroke: rgb(0, 0, 0);"/></g><g
            style="transform-origin: 50px 50px 0px;"><line class="st46" x1="62" y1="68.3" x2="62" y2="73.2" stroke="#000000" style="stroke: rgb(0, 0, 0);"/></g><g
            style="transform-origin: 50px 50px 0px;"><line class="st46" x1="70" y1="63.7" x2="70" y2="68.7" stroke="#000000" style="stroke: rgb(0, 0, 0);"/></g><g
            style="transform-origin: 50px 50px 0px;"><path class="st18" d="M87.1,53.3c1.6,0,2.9-1.3,2.9-2.9v-5.1c0-1.6-1.3-2.9-2.9-2.9h-1.5v-6.7c0-11.4-9.3-20.7-20.7-20.7H54.2 c9.2,0,16.6,9.3,16.6,20.7v6.7H72c1.3,0,2.4,1.3,2.4,2.9v5.1c0,1.6-1.1,2.9-2.4,2.9h-1.2V63H72c1.3,0,2.4,1.3,2.4,2.9V71 c0,1.6-1.1,2.9-2.4,2.9h-1.2v1.6c0,5.7-3.7,10.4-8.4,10.4h12.8c5.7,0,10.4-4.7,10.4-10.4V74h1.5c1.6,0,2.9-1.3,2.9-2.9v-5.1 c0-1.6-1.3-2.9-2.9-2.9h-1.5v-9.7H87.1z" fill="#3b3b3b" stroke="#3b3b3b" style="fill: rgb(59, 59, 59); stroke: rgb(59, 59, 59);"/></g><metadata
            style="transform-origin: 50px 50px 0px;">
</metadata></g></g></g></g>
        <style type="text/css" style="transform-origin: 50px 50px 0px;">
          @keyframes ld-cycle {
            0%, 50%, 100% {
              animation-timing-function: cubic-bezier(0.5, 0.5, 0.5, 0.5);
            }
            0% {
              -webkit-transform: rotate(0);
              transform: rotate(0);
            }
            50% {
              -webkit-transform: rotate(180deg);
              transform: rotate(180deg);
            }
            100% {
              -webkit-transform: rotate(360deg);
              transform: rotate(360deg);
            }
          }
          @-webkit-keyframes ld-cycle {
            0%, 50%, 100% {
              animation-timing-function: cubic-bezier(0.5, 0.5, 0.5, 0.5);
            }
            0% {
              -webkit-transform: rotate(0);
              transform: rotate(0);
            }
            50% {
              -webkit-transform: rotate(180deg);
              transform: rotate(180deg);
            }
            100% {
              -webkit-transform: rotate(360deg);
              transform: rotate(360deg);
            }
          }
          .ld.ld-cycle {
            -webkit-animation: ld-cycle 1s infinite linear;
            animation: ld-cycle 1s infinite linear;
          }
          </style>
        </svg>
</svg>